<?xml version="1.0" encoding="utf-8"?>
<!-- Generator: Adobe Illustrator 26.3.1, SVG Export Plug-In . SVG Version: 6.00 Build 0)  -->
<svg version="1.1" id="Layer_1" xmlns="http://www.w3.org/2000/svg" xmlns:xlink="http://www.w3.org/1999/xlink" x="0px" y="0px"
	 viewBox="0 0 1080 208.16" style="enable-background:new 0 0 1080 208.16;" xml:space="preserve">
<style type="text/css">
	.st0{fill:#BA1822;}
	.st1{fill:#4D4D4D;}
</style>
<g>
	<path class="st0" d="M879.27,33.28l-0.04,0.01c0.01,0.01,0.02,0.01,0.02,0.01C879.26,33.29,879.27,33.29,879.27,33.28"/>
	<path class="st0" d="M860.23,72.83c0,12.58,5.09,23.95,13.33,32.19c8.23,8.23,19.61,13.33,32.18,13.33
		c12.58,0,23.96-5.1,32.19-13.33c8.23-8.25,13.33-19.61,13.33-32.19c0-12.56-5.09-23.95-13.33-32.17
		c-8.23-8.24-19.61-13.33-32.19-13.33c-12.57,0-23.95,5.09-32.18,13.33C865.33,48.88,860.23,60.27,860.23,72.83 M934.81,101.91
		c-7.44,7.44-17.71,12.05-29.08,12.05c-11.35,0-21.62-4.61-29.06-12.05c-6.64-6.64-11.02-15.55-11.88-25.47
		c2.79,2.31,5.57,4.37,8.35,6.2c3.62,2.39,7.22,4.37,10.81,5.96c3.62,1.59,7.24,2.79,10.86,3.57c3.62,0.79,7.28,1.16,10.93,1.15
		c3.67,0.02,7.32-0.35,10.94-1.15c3.62-0.78,7.24-1.98,10.86-3.57c3.59-1.59,7.19-3.57,10.81-5.96c2.78-1.83,5.55-3.9,8.35-6.2
		C945.83,86.35,941.45,95.26,934.81,101.91 M866.56,72.8c3.04-2.55,6.06-4.8,9.04-6.75c3.31-2.16,6.61-3.98,9.9-5.43
		c3.38-1.49,6.75-2.61,10.12-3.34l0.29-0.06c-5.18,3.28-8.62,9.04-8.62,15.62s3.44,12.35,8.62,15.62l-0.29-0.07
		c-3.37-0.73-6.74-1.83-10.12-3.33c-3.3-1.46-6.59-3.26-9.9-5.42c-2.99-1.96-6-4.21-9.04-6.75l0.05-0.05L866.56,72.8z M901.37,72.83
		c0-2.41,1.96-4.37,4.37-4.37c2.42,0,4.38,1.95,4.38,4.37c0,2.42-1.96,4.38-4.38,4.38C903.33,77.21,901.37,75.25,901.37,72.83
		 M915.57,57.21l0.3,0.06c3.36,0.73,6.74,1.85,10.11,3.34c3.3,1.45,6.59,3.27,9.9,5.43c2.99,1.95,6.01,4.2,9.04,6.75l-0.02,0.02
		l0.05,0.03c-3.05,2.57-6.07,4.82-9.07,6.79c-3.31,2.16-6.61,3.96-9.9,5.42c-3.38,1.5-6.75,2.6-10.11,3.33l-0.3,0.07
		c5.18-3.27,8.62-9.05,8.62-15.62S920.75,60.5,915.57,57.21 M905.74,31.72c11.36,0,21.64,4.6,29.08,12.05
		c6.64,6.64,11.02,15.55,11.88,25.45c-2.79-2.29-5.57-4.35-8.35-6.19c-3.62-2.38-7.22-4.38-10.81-5.96
		c-3.62-1.61-7.24-2.79-10.86-3.59c-3.62-0.78-7.27-1.17-10.94-1.15c-3.65-0.02-7.31,0.37-10.93,1.15
		c-3.62,0.79-7.24,1.98-10.86,3.59c-3.59,1.57-7.19,3.57-10.81,5.96c-2.78,1.83-5.55,3.9-8.35,6.19c0.86-9.9,5.25-18.82,11.88-25.45
		C884.11,36.32,894.39,31.72,905.74,31.72"/>
	<path class="st0" d="M879.27,33.3l-0.02-0.01c-0.02,0.02-0.03,0.03-0.05,0.04L879.27,33.3z"/>
	<path class="st0" d="M966.03,40.17l-0.05-0.01c-3.01-2.45-6.66-1.42-6.79-1.38l-0.05-0.01c-3.33-2.44-5.95-2.06-7.37-1.5
		c-0.77,0.3-1.2,0.65-1.2,0.65c-0.52-0.48-1.01-0.86-1.48-1.19c-2.52-1.81-4.14-1.58-5.07-1.03c-0.7,0.42-1.01,1-1.01,1
		c-0.65-0.65-1.33-1.17-2.01-1.61c-4.22-2.68-8.79-1.79-8.79-1.79l0.04,0.02c12.7,8.54,21.06,23.05,21.06,39.52
		c0,21.77-14.63,40.13-34.58,45.78l0.7,4.27l11.21,0.07l-0.04,7.23l-24.87,25.02l-24.86-25.02l-0.03-7.23l11.2-0.07l0.7-4.27
		c-19.95-5.65-34.58-24.01-34.58-45.78c0-16.45,8.35-30.96,21.04-39.5c0.02-0.01,0.03-0.03,0.05-0.04c-0.01,0-0.02-0.01-0.02-0.01
		c-0.33-0.06-4.67-0.79-8.72,1.78c-0.7,0.44-1.39,0.97-2.04,1.63c0,0-0.31-0.59-1.02-1c-0.92-0.54-2.54-0.76-5.05,1.03
		c-0.47,0.33-0.96,0.72-1.49,1.2c0,0-0.44-0.35-1.21-0.65c-1.42-0.56-4.04-0.93-7.35,1.5l-0.06,0.01c-0.17-0.05-3.79-1.06-6.78,1.38
		l-0.05,0.01c-20.91,25.2-14.28,54.37,4.14,68.34l0.02,24.68l39.32,41.53h16.8h16.82l39.32-41.53l0.02-24.68
		C980.31,94.54,986.94,65.36,966.03,40.17"/>
</g>
<g>
	<path class="st1" d="M112.69,62.23c-1.16-1.39-3.29-3.04-6.85-3.04c-2.78,0-5.11,0.75-6.91,2.25c-1.46,1.22-3.21,3.55-3.21,7.74
		c0,2.81,0.78,5.17,2.36,7.04c1.69,1.96,4.06,3,6.85,3c2.85,0,5.2-0.8,6.97-2.36c1.4-1.23,3.06-3.56,3.06-7.68
		C114.96,66.38,114.19,64.05,112.69,62.23"/>
	<path class="st1" d="M134.69,62.23c-1.16-1.39-3.29-3.04-6.85-3.04c-2.78,0-5.1,0.75-6.91,2.25c-1.46,1.22-3.21,3.55-3.21,7.74
		c0,2.81,0.78,5.17,2.36,7.04c1.69,1.96,4.06,3,6.85,3c2.85,0,5.19-0.8,6.97-2.36c1.4-1.23,3.06-3.56,3.06-7.68
		C136.96,66.38,136.2,64.05,134.69,62.23"/>
	<path class="st1" d="M667.83,50.51c-1.16-1.39-3.29-3.04-6.85-3.04c-2.78,0-5.1,0.75-6.91,2.25c-1.46,1.22-3.21,3.55-3.21,7.74
		c0,2.81,0.78,5.17,2.36,7.04c1.69,1.96,4.06,3,6.85,3c2.85,0,5.2-0.8,6.97-2.36c1.4-1.23,3.06-3.56,3.06-7.68
		C670.1,54.66,669.33,52.32,667.83,50.51"/>
	<path class="st1" d="M680.34,137.59c-1.16-1.39-3.29-3.04-6.85-3.04c-2.78,0-5.11,0.75-6.91,2.25c-1.46,1.22-3.21,3.55-3.21,7.74
		c0,2.81,0.78,5.17,2.36,7.04c1.69,1.96,4.06,3,6.85,3c2.85,0,5.2-0.8,6.97-2.36c1.4-1.23,3.06-3.56,3.06-7.68
		C682.61,141.74,681.85,139.4,680.34,137.59"/>
	<path class="st1" d="M702.35,137.59c-1.16-1.39-3.29-3.04-6.85-3.04c-2.78,0-5.1,0.75-6.91,2.25c-1.46,1.22-3.21,3.55-3.21,7.74
		c0,2.81,0.78,5.17,2.36,7.04c1.69,1.96,4.06,3,6.85,3c2.85,0,5.19-0.8,6.97-2.36c1.4-1.23,3.06-3.56,3.06-7.68
		C704.62,141.74,703.85,139.4,702.35,137.59"/>
	<path class="st1" d="M211.78,59.91v7.35c0,16.99-1.76,25.24-2.68,27.75l-0.84,1.28c-5.41,8.24-16.6,8.84-16.88,8.86H95.71v21.66
		h95.8l0.17-0.01c0.87-0.02,21.44-0.61,33.12-17.41c5.2-6.05,7.73-19.83,7.73-42.13v-7.35H211.78z"/>
	<path class="st1" d="M390.6,68.17c-5.6-5.94-12.99-8.95-21.94-8.95h-35.89v21.66h35.89c3.18,0,5.58,0.83,7.15,2.48
		c2.79,2.94,3.46,8.44,3.48,10.36c0,6.61-2.31,8.83-4.06,9.92c-1.92,1.2-4.05,1.47-4.53,1.52h-48.55c1.01-3.47,1.52-7.28,1.52-11.36
		c0.02-2.59-0.33-15.98-9.45-25.63c-5.6-5.94-12.99-8.95-21.94-8.95h-48.4v21.66h48.4c3.18,0,5.58,0.83,7.15,2.48
		c2.79,2.94,3.47,8.44,3.48,10.36c0,6.61-2.31,8.83-4.06,9.92c-1.92,1.2-4.05,1.47-4.53,1.52h-50.45v21.66h127.14l0.17-0.01
		c1.23-0.03,7.71-0.36,14.34-4.37c6.62-4,14.5-12.23,14.51-28.63C400.05,92.21,399.91,78.03,390.6,68.17"/>
	<path class="st1" d="M582.99,126.81c0.07,0,0.17,0,0.25-0.01L582.99,126.81L582.99,126.81z"/>
	<path class="st1" d="M762.52,83.35c1.56-1.65,3.96-2.48,7.15-2.48h48.4V59.22h-48.4c-8.95,0-16.34,3.01-21.94,8.95
		c-1.89,2-3.39,4.17-4.6,6.36c-0.59,1.06-1.12,2.13-1.57,3.2c-3.12,7.32-3.29,14.28-3.28,16.07c0,2.7,0.24,5.26,0.68,7.69
		c0.23,1.25,0.49,2.48,0.83,3.66h-11.49c-5.21,0-8.61-1.43-10.38-4.39c-1.17-1.94-1.44-4.08-1.49-4.58v-15.3v-6.35h-20.76v6.35
		v13.19c0,3.21-0.76,5.56-2.33,7.19c-1.43,1.47-3.47,2.41-5.45,3c-2.24,0.67-4.39,0.89-5.47,0.9c-5.2,0-8.59-1.43-10.37-4.39
		c-1.17-1.94-1.44-4.08-1.49-4.58V74.53h-3.8h-16.95v19.53c0,3.21-0.76,5.56-2.33,7.19c-2.97,3.07-8.6,3.85-10.76,3.9
		c-5.07-0.04-8.4-1.47-10.15-4.39c-1.16-1.94-1.43-4.08-1.49-4.58v-3.09l-0.04,0.02c0.01-1.45-0.16-10.18-4.54-18.58
		c-0.79-1.52-1.74-3.02-2.83-4.48h23.33V48.39h-65.15v10.22v11.44c16.25,0,23.21,7.33,26.16,14.36c2.4,5.72,2.15,11.22,2.06,12.43
		c-0.02,0.09-0.04,0.17-0.06,0.25c-0.35,1.7-1,3.1-2.01,4.15c-3.04,3.14-8.88,3.88-10.92,3.91v0.01h-103.1v21.65h103.1
		c0.03,0,0.05,0,0.07,0c2.39,0,13.99-0.41,23.13-8.03c4.51,4.14,11.59,7.91,22.35,8.01v0.02c0.08,0,0.2,0,0.31,0
		c0.03,0,0.05,0,0.08,0c3.04-0.05,14-0.74,22.75-8.03c4.56,4.19,11.74,8.02,22.74,8.03c0.77,0,2.51-0.05,4.81-0.36
		c4.82-0.66,12.13-2.51,18.33-7.67c4.56,4.19,11.71,8.02,22.6,8.03h0.14h89.69v-21.66h-50.45c-0.48-0.05-2.61-0.32-4.53-1.52
		c-0.53-0.33-1.11-0.77-1.67-1.4c-1.27-1.45-2.39-3.92-2.39-8.52c0.02-1.87,0.66-7.12,3.27-10.11
		C762.38,83.52,762.45,83.43,762.52,83.35z"/>
	<path class="st1" d="M468.08,68.2c-6.14-6.39-14.77-10.37-24.33-10.37c-18.64,0-33.75,15.11-33.75,33.75
		c0,18.64,15.11,33.75,33.75,33.75c1.13,0,2.24-0.06,3.34-0.17l-9.71,26.37h19.95l16.31-44.27c1.35-2.57,2.37-5.32,3.03-8.22
		c0.54-2.4,0.84-4.9,0.84-7.46C477.5,82.5,473.91,74.27,468.08,68.2 M443.75,106.57c-8.28,0-14.99-6.71-14.99-14.99
		s6.71-14.99,14.99-14.99c8.28,0,14.99,6.71,14.99,14.99c0,0.9-0.09,1.78-0.24,2.63c-0.32,1.78-0.94,3.43-1.82,4.93
		C454.08,103.58,449.27,106.57,443.75,106.57"/>
</g>
</svg>
